<svg width="182" height="111" viewBox="0 0 182 111" fill="none" xmlns="http://www.w3.org/2000/svg">
<path d="M17.1094 57.1478L17.4709 57.0104C19.355 56.2943 21.6502 56.099 24.3564 56.4245C25.4707 55.9258 26.6472 55.228 27.8859 54.331L28.4209 54.3533C28.5274 54.2376 28.6244 54.1631 28.7121 54.1298C30.9849 53.8427 32.6044 54.0797 33.5706 54.8408C35.4689 56.0751 36.851 57.8315 37.7169 60.11C38.0482 61.8395 38.0579 63.4154 37.746 64.8377C36.7987 66.5015 35.6258 68.0004 34.2271 69.3342C34.008 69.4175 33.7618 69.5612 33.4884 69.7654L33.5633 69.9626C33.9577 69.8127 35.5472 70.3996 38.3319 71.7232C38.4068 71.9204 39.4122 72.5538 41.3482 73.6233L43.6257 75.9546L43.5817 76.2346C43.6838 76.3713 43.8875 76.5446 44.1929 76.7544C44.3051 77.3135 44.3737 77.626 44.3987 77.6917L44.6662 77.7029C45.0992 78.8421 45.2155 80.039 45.0153 81.2935C45.0035 81.7242 44.8881 81.9812 44.669 82.0645L44.7439 82.2617C45.19 82.6437 45.6652 83.1025 46.1696 83.6379L46.1256 83.9179C46.2632 84.0161 46.3611 84.1418 46.4194 84.2952C46.4527 84.3828 46.4255 84.4433 46.3379 84.4766C46.5828 84.6593 46.7303 84.8164 46.7803 84.9479C46.8052 85.0136 46.7849 85.0589 46.7191 85.0839L47.03 85.6051L47.3298 86.3938C47.1485 90.0732 45.9298 93.332 43.6738 96.1702C42.5867 97.862 41.9446 98.7454 41.7474 98.8204C39.975 100.622 37.9827 102.307 35.7704 103.875C35.8037 103.963 35.7875 104.019 35.7217 104.044L35.1131 104.125C34.9931 104.271 34.9002 104.356 34.8344 104.381C34.6478 104.352 34.5216 104.35 34.4559 104.375C34.2731 104.62 34.1161 104.767 33.9846 104.817L33.7171 104.806C33.5887 104.93 33.4917 105.004 33.4259 105.029C33.3677 104.876 33.2618 104.828 33.1085 104.887L32.7798 105.012L31.7125 105.568C31.6792 105.48 31.48 105.418 31.115 105.381L30.9678 105.587L30.8363 105.637C30.7706 105.662 30.7211 105.631 30.6878 105.543C30.5677 105.689 30.4748 105.775 30.4091 105.8C28.6652 105.961 26.6548 106.048 24.378 106.061C22.9044 105.944 21.4128 105.483 19.9033 104.677C18.3736 104.281 16.7148 102.918 14.9269 100.589C14.9887 100.289 14.9988 100.085 14.9571 99.9755C14.8038 100.034 14.6979 99.9863 14.6397 99.8329C14.5731 99.6577 14.5476 99.4918 14.5634 99.3354L14.3774 99.1428C13.9444 98.0036 13.8169 96.4474 13.9947 94.4742C13.8615 94.1237 14.4446 92.6233 15.7442 89.9732C16.6774 88.8663 17.6261 88.1297 18.5901 87.7633C18.973 87.5175 19.6246 87.2197 20.5447 86.87C21.8956 86.5321 23.2948 86.552 24.7421 86.9297C26.0067 87.5523 26.9834 88.2091 27.6723 88.9001L27.7708 88.8626C28.2747 87.4175 28.8585 86.3807 29.5224 85.7523L29.4849 85.6538L25.2113 85.0965C23.9077 84.9651 22.6297 84.7362 21.3774 84.4098C19.8986 84.345 17.7256 83.6414 14.8585 82.2989C11.9415 80.825 9.65129 78.7242 7.98786 75.9966L8.03189 75.7166C7.86099 75.5309 7.74268 75.4505 7.67695 75.4754L7.56322 74.8793L7.07879 74.1984L7.02883 74.0669C6.87896 73.6726 6.71616 73.1452 6.54042 72.4849C6.41641 72.3565 6.34192 72.2595 6.31694 72.1937C5.90667 68.7391 6.37038 65.9679 7.70807 63.8799C8.11424 63.2993 9.10383 62.2086 10.6768 60.6079L11.0055 60.483L11.273 60.4941C11.0565 59.9245 13.002 58.8091 17.1094 57.1478ZM8.84481 72.5118C10.3527 75.4238 11.6127 77.189 12.625 77.8072C13.9133 78.822 14.9916 79.5154 15.8601 79.8874C18.307 81.1138 20.3866 81.8027 22.099 81.9543C26.1807 82.5343 28.3858 82.7618 28.7145 82.6369C29.4217 82.5186 30.1219 82.6787 30.8151 83.1173C32.3023 83.204 33.15 83.5212 33.3581 84.0689L33.483 84.3976C33.4493 84.8366 33.1476 85.1644 32.578 85.3809L31.9694 85.4617C30.8669 86.7833 30.0393 88.2011 29.4864 89.715C29.528 89.8246 29.1071 90.4985 28.2238 91.7368L27.6651 91.9491C27.468 92.0241 26.7671 91.4004 25.5625 90.078C23.6016 88.9427 21.8872 88.654 20.4193 89.2119C18.9076 89.7864 17.8163 90.8405 17.1456 92.3741C16.4292 93.5239 16.1273 94.7419 16.24 96.0279C16.3653 97.0835 16.4061 97.6196 16.3623 97.6363L16.6732 98.1575L16.7981 98.4861C16.8647 98.6614 16.8901 98.8272 16.8743 98.9837C17.8283 100.702 19.9303 102.11 23.1804 103.206C24.7622 103.608 27.0953 103.612 30.1796 103.217C30.7931 102.983 31.1342 102.891 31.203 102.941C31.2906 102.907 31.3219 102.858 31.297 102.792C32.5383 102.496 33.4548 102.235 34.0463 102.01C34.229 101.765 34.3861 101.618 34.5175 101.568L35.0151 101.492C38.127 99.2561 40.5767 96.7956 42.3644 94.1104C44.0758 91.5544 44.9241 89.2011 44.9091 87.0505C44.8508 86.8972 44.8545 86.808 44.9202 86.783C44.0749 84.8226 43.3675 83.9507 42.7978 84.1672C42.7479 84.0357 42.6129 83.9115 42.3929 83.7945C42.1098 83.0496 42.3109 81.9953 42.9962 80.6317L42.845 79.937L42.659 79.7444L42.5689 78.9136C42.1443 77.7963 41.0595 76.5913 39.3146 75.2988C39.2051 75.3404 38.7881 75.035 38.0638 74.3826C34.6683 72.6392 32.377 71.8551 31.19 72.0305C30.9389 71.6996 28.5513 71.4537 24.027 71.2926C23.9105 70.9859 23.7652 70.7026 23.5912 70.4428C23.7284 69.814 24.257 69.3247 25.1772 68.975C26.1981 69.0885 26.9292 69.099 27.3705 69.0065C28.5124 69.1743 29.2367 69.1999 29.5434 69.0833C29.5184 69.0176 29.5498 68.9681 29.6374 68.9348C29.7908 68.8765 30.1794 68.6786 30.8034 68.3412C30.8691 68.3162 30.9186 68.3476 30.9519 68.4352C32.6608 67.7858 34.1758 66.3951 35.4968 64.2633C35.8144 63.5158 35.8059 62.5036 35.471 61.2268C35.4128 61.0734 35.3258 60.9435 35.2101 60.837C35.2259 60.6806 35.2004 60.5147 35.1338 60.3395L34.9715 59.9122C34.6358 59.6888 34.117 58.9833 33.415 57.7959C31.4698 56.5042 29.9824 56.054 28.9527 56.4454L24.647 58.8715L21.8891 58.6409C20.1745 58.6156 18.5395 58.8985 16.984 59.4896C14.8807 60.2889 12.8752 61.4774 10.9674 63.0549C8.29509 66.0513 7.58755 69.2035 8.84481 72.5118ZM29.8132 58.4125L30.2732 58.2377C30.9533 58.1798 31.6222 58.3895 32.2799 58.8666C32.5249 59.0493 33.0029 59.8455 33.7142 61.2551C33.7764 61.6827 33.82 61.9294 33.845 61.9952C33.9826 62.0933 34.068 62.1862 34.1013 62.2738C33.9699 62.3238 33.948 62.9589 34.0357 64.1793C33.3925 65.1258 32.7313 65.7281 32.0521 65.9862C31.7265 66.1851 31.257 66.4012 30.6436 66.6343L29.6577 67.009C29.0004 67.2588 28.5594 67.0879 28.3346 66.4964C28.5081 66.0292 29.113 65.4107 30.1493 64.6408L30.1992 64.7723C30.8797 64.1877 31.226 63.4167 31.2383 62.4593L31.4157 61.6397C31.3574 61.4863 31.2954 61.4221 31.2297 61.4471L31.0285 60.6209L30.8162 60.0622C30.1699 59.6811 29.7843 59.3261 29.6594 58.9975L29.6094 58.8661C29.5678 58.7565 29.6357 58.6053 29.8132 58.4125ZM25.6762 72.96C29.034 73.6146 31.3515 74.1379 32.6288 74.53C35.027 75.2985 36.5436 75.8253 37.1785 76.1106C38.175 76.8852 39.3036 78.0735 40.5643 79.6755C40.6892 80.0041 40.4438 80.3481 39.8282 80.7074C38.7484 79.7137 37.5752 78.9686 36.3084 78.4722C33.5894 77.1236 32.0437 76.52 31.6713 76.6616C31.638 76.5739 30.5171 76.1976 28.3087 75.5325C28.2587 75.401 27.7738 75.2468 26.8541 75.0698C26.6832 74.8841 26.1567 74.6203 25.2746 74.2785C25.0165 73.5994 25.1504 73.1599 25.6762 72.96ZM21.6872 90.272C23.4684 90.4726 24.7212 91.526 25.4456 93.432C25.5372 93.673 25.2955 93.9278 24.7207 94.1965C24.4578 94.2964 23.8314 93.7697 22.8415 92.6165C21.4743 92.3838 20.7325 92.1142 20.6159 91.8074C20.5852 91.0669 20.9423 90.5551 21.6872 90.272ZM41.5925 87.0323C42.1183 86.8324 42.4811 86.9954 42.681 87.5212C42.699 89.7459 41.1379 92.7963 37.9976 96.6726C37.5594 96.8391 36.859 97.5691 35.8964 98.8627L35.6617 98.839C35.0794 99.286 34.1424 99.8552 32.8507 100.547C31.5353 100.846 30.8109 100.82 30.6777 100.47L30.6403 100.371C30.5986 100.262 30.6665 100.111 30.844 99.9178L31.8299 99.5431C32.2141 98.9708 33.0637 98.1715 34.3787 97.1453L36.9682 94.6568C39.1586 91.8436 40.44 89.7394 40.8124 88.3442C40.6292 87.8622 40.8892 87.4249 41.5925 87.0323ZM40.6203 47.7989L40.6577 47.8975L40.8503 47.7115L42.0662 47.2494C44.3649 47.2283 45.8383 47.6086 46.4864 48.3903C48.2588 46.5884 50.8034 44.8064 54.1204 43.0444C54.2987 43.0518 54.4317 43.0389 54.5194 43.0056L54.7119 42.8196C55.6027 42.6566 56.1906 42.5209 56.4754 42.4127L56.9841 42.0689C58.7149 41.4111 60.8521 41.163 63.3957 41.3246C65.5783 41.7237 66.9071 42.2843 67.3821 43.0064C67.3164 43.0314 67.3002 43.0877 67.3335 43.1754C68.0675 43.5233 68.6426 44.2449 69.0589 45.3403C69.6435 47.2744 69.892 48.2582 69.8044 48.2915L69.9904 48.484L69.5311 51.6297C68.4484 54.3228 67.2481 56.1455 65.9301 57.0977C65.3925 57.7283 64.8936 58.131 64.4335 58.3058C66.7682 58.9731 68.3476 60.3912 69.1719 62.5602L69.3468 63.0202C69.5466 63.546 69.5699 63.8381 69.4165 63.8964L69.6025 64.0889C69.7424 66.5682 69.5553 68.3191 69.0414 69.3419C71.4873 69.1144 73.0433 69.2501 73.7093 69.7492C75.7509 70.5028 77.1487 71.4759 77.9028 72.6686C78.5001 73.1186 79.1044 73.917 79.7157 75.0637C79.7407 75.1294 79.7093 75.1789 79.6217 75.2122C79.655 75.2998 79.7155 75.327 79.8031 75.2937C80.8022 77.9227 80.4761 80.7922 78.8247 83.902C77.3985 85.823 76.3399 87.128 75.649 87.8168C73.4721 89.3461 71.4526 90.4647 69.5904 91.1724L67.1256 92.1091C66.8877 92.2747 66.7469 92.3659 66.703 92.3825C63.0123 93.3589 60.0176 93.8577 57.7189 93.8788C55.0061 93.9319 52.48 93.3876 50.1405 92.2458C49.7715 91.9347 49.1556 91.3037 48.2928 90.3529C48.2679 90.2872 48.2882 90.2418 48.354 90.2169C48.0384 89.5846 47.7707 89.21 47.5507 89.093C47.6603 89.0513 47.605 88.3452 47.385 86.9746C47.5655 85.6022 47.7653 84.8744 47.9844 84.7911C44.6821 81.182 42.4032 77.9235 41.1477 75.0158C41.0163 75.0658 40.6981 74.4595 40.1933 73.1972L39.5064 71.3897C39.4481 71.2363 39.4378 71.0773 39.4755 70.9125C39.3379 70.8144 39.0322 70.241 38.5585 69.1925C38.1519 67.7925 38.0033 67.0717 38.1128 67.0301L37.8019 66.5089L37.5396 65.8188C36.8744 63.0127 36.508 60.7951 36.4404 59.1659C36.3742 57.2103 36.6184 55.049 37.1731 52.6819C37.6852 51.2587 38.5401 49.7805 39.7376 48.2472C39.9347 48.1723 40.229 48.0229 40.6203 47.7989ZM38.5234 60.2924L38.7422 60.4725C38.326 60.6307 38.8002 63.033 40.1648 67.6794C40.9019 69.355 41.5577 70.9486 42.1322 72.4603L42.2197 72.6903C42.6859 73.9172 43.4046 75.1485 44.3756 76.3841L44.3645 76.6516C45.7435 78.9608 47.0104 80.7108 48.165 81.9018C48.7986 82.5134 49.4621 83.0386 50.1553 83.4772C50.2718 83.7839 50.0401 84.7244 49.46 86.2988C49.3281 86.8755 49.4037 87.5363 49.6868 88.2812C50.689 89.7306 51.7694 90.5611 52.9279 90.7727C54.6347 91.5031 57.3222 91.6476 60.9907 91.2062C62.0962 91.2123 63.3281 90.9573 64.6865 90.441L64.9165 90.3536C64.9822 90.3286 65.0276 90.349 65.0526 90.4147C65.1183 90.3898 65.1387 90.3444 65.1137 90.2787C66.0264 90.1073 66.6252 89.9675 66.91 89.8593C70.8579 88.1082 73.1842 86.8731 73.8887 86.154C74.9916 85.5593 76.2809 84.0037 77.7566 81.4872C78.5746 79.7472 78.5923 77.8475 77.8096 75.788L77.6348 75.328L76.0342 73.4916C74.4375 72.1929 72.8328 71.5992 71.2203 71.7106C70.7261 71.5976 69.6716 71.6598 68.0569 71.8974C67.2655 71.5964 66.8532 71.402 66.8199 71.3144C66.7949 71.2487 66.8153 71.2033 66.881 71.1784L66.695 70.9858L66.6076 70.7557C66.466 70.3833 66.5999 69.9438 67.0091 69.4372C67.6672 66.8804 67.7256 64.89 67.1844 63.4659C66.3032 62.0708 65.3939 61.1627 64.4566 60.7417C63.2095 60.3631 62.2464 60.3029 61.5673 60.561L61.3872 60.7799C59.9048 61.1677 59.0929 61.1754 58.9513 60.803L58.739 60.2443C58.5392 59.7185 59.9293 58.6261 62.9093 56.967C65.6114 54.5109 66.9879 52.8219 67.0387 51.9C67.5207 51.7168 67.7468 50.7283 67.7169 48.9343L67.6209 47.6921C67.5052 47.5856 67.4182 47.4557 67.3599 47.3024C67.2653 46.9873 67.2837 46.8048 67.4151 46.7549C66.0755 44.6814 65.0771 43.7696 64.4198 44.0194C63.1009 43.5177 60.8929 43.5796 57.7959 44.205C57.7302 44.23 57.714 44.2863 57.7473 44.3739L56.9086 44.5422L56.4485 44.7171C56.2732 44.7837 56.1365 44.8858 56.0384 45.0234L55.7584 44.9793C53.3046 45.9119 50.9192 47.4202 48.6022 49.5043C48.3612 49.5958 47.939 49.9694 47.3357 50.6249C47.029 50.7415 46.063 50.3439 44.4377 49.4321C43.4492 49.206 42.7139 49.1846 42.2319 49.3678C39.6248 50.3586 38.3886 54.0001 38.5234 60.2924ZM43.559 50.7815C45.0637 51.1123 46.0825 51.9788 46.6154 53.3809C46.2855 53.8322 46.0767 54.0746 45.9891 54.1079C45.5395 54.1784 44.8051 53.7304 43.7858 52.7638C43.2259 52.6758 42.925 52.577 42.8834 52.4674C42.6327 51.6099 42.8579 51.048 43.559 50.7815ZM61.5713 45.6285L61.8999 45.5036C62.8858 45.1289 63.9706 45.7071 65.1541 47.238L65.2527 47.2006C66.3102 49.983 65.4096 52.5943 62.551 55.0347C61.2286 56.2393 59.9978 57.0581 58.8585 57.491C58.1636 57.9056 57.0603 58.4001 55.5486 58.9746C54.8488 58.9146 54.364 58.7604 54.094 58.5119L54.0566 58.4133C54.0149 58.3038 54.1262 58.0358 54.3904 57.6095L54.6205 57.5221C56.5484 56.7894 57.6826 56.1452 58.0231 55.5896L57.9856 55.491L58.4503 55.4272C60.001 54.3615 61.0098 53.2886 61.4769 52.2084C62.5096 50.6375 62.8511 49.392 62.5014 48.4718L62.0945 46.7084C61.985 46.75 61.7843 46.6508 61.4925 46.4107L61.3676 46.082C61.3259 45.9725 61.3938 45.8213 61.5713 45.6285ZM50.8926 61.2706L51.3198 61.1083C51.9359 61.4759 53.1091 61.5941 54.8395 61.463L54.9867 61.2567C55.3955 61.2768 55.651 61.3552 55.7531 61.4919C55.0691 62.5291 53.9706 63.4982 52.4576 64.3992L52.2276 64.4866C52.0742 64.5449 51.9726 64.5083 51.9226 64.3768L51.5355 63.3581C51.4938 63.2485 51.1882 62.6752 50.6185 61.638L50.8926 61.2706ZM63.2664 62.3599C64.2821 62.5255 65.0272 63.2327 65.5018 64.4815C65.9629 67.0141 65.9513 68.4352 65.4671 68.7445C64.7241 70.6818 63.5397 72.0846 61.9141 72.9532L60.8953 73.3403C60.352 73.2961 60.0054 73.0768 59.8555 72.6825C60.1386 72.1737 60.6615 71.6365 61.4244 71.0708C61.6605 70.5046 62.1874 69.6149 63.005 68.4015C63.3875 67.4288 63.6028 66.181 63.651 64.6584C63.1978 63.9279 62.9213 63.4313 62.8214 63.1684L62.784 63.0698C62.734 62.9383 62.8948 62.7017 63.2664 62.3599ZM55.8279 75.6423L58.3078 75.3392L59.5237 74.8771C59.6551 74.8271 59.8668 74.9222 60.1586 75.1623C59.6429 75.7846 58.7328 76.5567 57.4284 77.4786C57.4534 77.5444 57.2613 77.8305 56.852 78.3371L56.7534 78.3745C56.622 78.4245 56.4103 78.3294 56.1185 78.0893C56.1803 77.79 56.1358 77.3431 55.985 76.7485C55.8027 76.4667 55.6699 76.2163 55.5867 75.9972L55.8279 75.6423ZM70.0012 74.2424L70.7899 73.9427C71.6443 73.618 72.8715 74.142 74.4713 75.5147C74.5953 75.6431 74.6698 75.7402 74.6948 75.8059L74.6837 76.0734C75.0443 76.3626 75.2662 76.6167 75.3495 76.8358C75.4336 77.2552 75.4882 77.4977 75.5132 77.5634C75.5382 77.6291 75.5835 77.6495 75.6492 77.6245C76.0542 79.8776 76.0486 81.0833 75.6323 81.2415C74.3441 83.9876 73.0897 85.6679 71.8689 86.2822L71.2728 86.396C71.3311 86.5493 71.2836 86.6551 71.1302 86.7134L70.6701 86.8883C70.4291 86.9799 69.9324 87.2564 69.1801 87.7178C67.5361 88.142 66.6599 88.2117 66.5517 87.9269L66.4643 87.6969C66.5024 87.0054 66.7295 86.5806 67.1458 86.4224L67.8734 86.2587C69.7869 85.356 71.0547 84.5357 71.6769 83.7978C73.2806 81.6839 73.7744 79.8164 73.1582 78.1951L72.9084 77.5379C71.6915 75.9193 70.7873 75.2224 70.1958 75.4472C69.9009 75.133 69.7243 74.8993 69.666 74.7459L70.0012 74.2424ZM93.3306 27.5035C93.7468 27.3453 93.9841 27.3429 94.0424 27.4962C94.2689 27.2346 94.5574 27.0372 94.908 26.904L95.0394 26.8541C96.3978 26.3378 97.8442 26.5152 99.3787 27.3863C100.815 27.668 102.513 29.0033 104.474 31.3922C104.68 31.5394 105.409 32.7294 106.658 34.9624L106.527 35.0123C107.135 36.085 107.62 36.866 107.981 37.3554C108.015 37.4431 107.988 37.5035 107.9 37.5368L108.256 38.0784C108.364 38.3632 108.4 38.588 108.362 38.7528L108.768 39.4258C108.893 39.7544 108.97 40.0888 108.999 40.4288C109.286 40.9213 109.53 41.4304 109.73 41.9563L110.005 42.6792C110.071 42.8545 110.09 43.0355 110.061 43.2221L110.28 43.4022C111.292 46.5277 111.863 49.1189 111.993 51.1757C111.724 53.1081 111.636 54.1948 111.727 54.4358L112.276 54.7913L112.232 55.0713C112.265 55.159 112.326 55.1861 112.413 55.1528C112.447 55.2405 112.449 55.3776 112.419 55.5643C112.661 56.1996 113.023 56.7892 113.505 57.3329C113.539 57.4206 113.541 57.5577 113.511 57.7444C113.569 57.8978 113.782 58.1931 114.149 58.6304L114.435 60.1763C114.743 60.7866 114.951 61.071 115.06 61.0294C115.301 61.9912 115.426 62.6833 115.436 63.1057L115.622 63.2982C116.207 66.6862 116.097 69.0349 115.291 70.3442C115.008 72.8335 113.673 74.5319 111.285 75.4395L110.562 75.7143C109.817 75.9973 108.171 76.0211 105.625 75.7854C104.923 75.8516 103.459 75.2669 101.235 74.0313C99.9858 73.2523 98.6386 72.2474 97.193 71.0166C97.0479 71.0968 97.007 72.0776 97.0702 73.9592C97.072 75.6133 96.3105 77.733 94.7857 80.3184C93.6259 81.6868 92.7722 82.4752 92.2245 82.6833C88.8724 83.9572 85.3365 82.4051 81.6166 78.027C81.3195 77.839 81.0121 77.492 80.6944 76.9859C80.7019 76.8075 80.6889 76.6745 80.6556 76.5869C79.5404 75.6317 78.3549 73.9636 77.099 71.5826C76.4574 70.4223 76.0459 69.8014 75.8645 69.7199C75.265 68.1425 74.6136 66.9233 73.9103 66.0623C73.877 65.9747 73.9042 65.9142 73.9918 65.8809L73.6356 65.3393C73.6023 65.2517 73.6003 65.1145 73.6296 64.9279C73.5963 64.8402 73.5067 64.7364 73.3608 64.6163C73.2403 64.0353 73.1134 63.5695 72.9802 63.219L72.8928 62.9889L72.4865 62.3159C72.618 62.266 72.187 60.637 71.1935 57.4292C71.1637 56.8889 70.73 54.6592 69.8925 50.7402C69.942 50.1447 69.908 48.9666 69.7905 47.206C69.9001 47.1644 69.8974 46.5637 69.7826 45.4038C70.5579 39.5931 72.6545 36.0383 76.0722 34.7394C77.2334 34.2981 78.8757 34.727 80.9992 36.0261C84.6169 39.0139 86.6797 41.1761 87.1876 42.5125L88.3287 43.7337L88.2847 44.0137C88.8547 44.5241 89.1564 44.8232 89.1897 44.9108L89.3212 44.8608C88.5802 42.911 88.1377 40.5593 87.9939 37.8058C88.0754 36.3707 88.2059 35.4937 88.3855 35.1747C88.1441 34.5393 88.7686 32.7851 90.2592 29.9119C90.8573 29.3085 91.8607 28.551 93.2694 27.6396C93.2445 27.5738 93.2648 27.5285 93.3306 27.5035ZM91.2154 43.3136C91.3477 43.4638 91.4264 43.5718 91.4514 43.6376C91.5522 44.1007 91.6109 44.3542 91.6275 44.398C92.0846 45.4028 92.3778 45.9432 92.507 46.0195C92.4777 46.2061 92.4797 46.3433 92.513 46.4309C92.6444 46.381 93.248 47.3425 94.3238 49.3156C94.4334 49.274 94.6783 49.4567 95.0587 49.8638L95.1087 49.9952C95.3501 50.6306 95.1532 51.069 94.5178 51.3104L94.0249 51.4978C93.6524 51.6393 93.0457 51.2305 92.2048 50.2714C91.5914 50.5045 90.6684 49.89 89.4357 48.4278C89.1728 48.5277 88.549 47.975 87.5644 46.7696C86.8339 45.9691 86.1685 45.3068 85.5682 44.7828L85.5182 44.6513C85.4933 44.5856 85.5136 44.5402 85.5794 44.5152C83.2174 41.4012 81.0613 39.2244 79.1109 37.9849C79.0443 37.8096 78.423 37.4941 77.2469 37.0385L77.0339 37.2698L76.9353 37.3073C76.8039 37.3573 76.6376 37.2825 76.4365 37.0832C73.7198 38.1156 72.2108 41.1713 71.9095 46.2503C71.7886 47.4496 71.9684 49.6379 72.4487 52.8151C72.5999 54.1366 72.9834 55.8714 73.5991 58.0193L73.8305 58.2322C73.7771 58.5534 73.792 58.8236 73.8752 59.0427L74.2874 60.1271C74.3124 60.1929 74.281 60.2424 74.1934 60.2757C74.2267 60.3633 74.2872 60.3905 74.3748 60.3572C74.9449 62.1213 75.3591 63.3429 75.6172 64.0221C76.2333 65.6433 77.3133 67.6274 78.8571 69.9742C78.8194 70.1389 78.8505 70.3528 78.9504 70.6157C79.1038 70.5574 79.6382 71.3698 80.5536 73.0528C82.0851 75.1034 83.2209 76.3767 83.961 76.8727C85.447 78.5395 86.902 79.7291 88.3261 80.4415C89.5723 80.6198 90.4473 80.6132 90.9512 80.4217L91.5756 80.1844C92.2027 79.921 93.0144 78.923 94.0107 77.1904C94.6329 75.1989 94.9251 73.6587 94.8873 72.5698L94.4593 67.8809L94.8148 67.332L95.0449 67.2446C96.5123 67.2134 97.4209 67.6579 97.7706 68.5781C97.9187 68.572 99.083 69.4584 101.263 71.2373C103.939 72.8028 105.617 73.4565 106.296 73.1984C108.072 73.4511 109.311 73.4443 110.012 73.1779L111.326 72.6783C111.966 72.1844 112.367 71.656 112.529 71.0929C113.328 69.9619 113.761 68.3306 113.828 66.1988L113.642 66.0063C113.75 64.8372 113.454 63.3325 112.754 61.4922L112.392 60.5391C111.859 59.137 111.359 58.0858 110.893 57.3856C110.859 57.298 110.886 57.2375 110.974 57.2042L109.976 55.6656L109.426 54.2196C109.803 53.299 109.883 51.5636 109.666 49.0134C109.521 48.8933 109.431 48.7895 109.398 48.7018C109.384 48.2054 109.153 47.0021 108.703 45.0921L108.517 44.8996C108.416 44.4364 108.311 44.0624 108.203 43.7776C108.17 43.69 108.091 43.582 107.967 43.4536C107.934 43.3659 107.95 43.3096 108.016 43.2847L107.692 42.7306L107.043 41.0217C106.935 40.7369 106.754 40.3921 106.499 39.9872C106.537 39.8224 106.523 39.6524 106.456 39.4772C104.887 36.3377 103.825 34.5346 103.272 34.0679L103.172 33.805C103.201 33.6184 103.199 33.4812 103.166 33.3936C102.085 31.9993 100.768 30.8448 99.2172 29.9299C97.8097 29.2613 96.6752 28.9152 95.8138 28.8916C95.7261 28.9249 95.699 28.9853 95.7323 29.073L95.0908 29.1663L94.4664 29.4036C92.4727 30.1613 91.1089 32.2467 90.3751 35.6597C90.136 38.659 90.4161 41.2103 91.2154 43.3136ZM95.2907 31.5726L96.3752 31.1604C97.6402 31.2564 98.7422 31.7151 99.6813 32.5366C100.526 33.0431 101.982 35.0598 104.049 38.5866L104.242 39.491L104.549 39.9012L104.605 40.4441L104.961 40.9856C105.148 41.7419 105.231 42.2244 105.21 42.4329L105.698 42.9246C105.907 43.6725 105.956 44.0673 105.847 44.109L106.078 44.3219C106 44.5774 106.079 45.5124 106.317 47.1271L106.536 47.3072C106.411 47.5053 106.567 48.7747 107.005 51.1154L106.388 52.0645C105.831 52.0505 105.499 51.9011 105.39 51.6163C105.299 51.3753 105.155 50.5022 104.959 48.9971L104.872 48.7671C104.772 48.5042 104.514 48.1885 104.098 47.82C103.648 45.91 103.173 44.2977 102.674 42.9832L102.624 42.8517C102.54 42.6326 102.372 42.4208 102.119 42.2162C102.126 42.0378 102.113 41.9048 102.08 41.8172C102.047 41.7296 101.968 41.6216 101.844 41.4932C101.793 41.1615 101.718 40.8642 101.618 40.6013C99.3559 36.4965 97.9729 34.5398 97.469 34.7313C96.5413 34.0058 96.0276 33.5115 95.9276 33.2486L95.3361 33.4734C95.2266 33.515 94.9268 33.3531 94.4369 32.9877L94.2996 32.6262C94.2246 32.4291 94.555 32.0778 95.2907 31.5726ZM78.3085 39.8318L78.407 39.7943C79.382 40.0506 80.4218 40.7085 81.5265 41.768C81.8547 42.1698 82.7222 43.8585 84.1288 46.8342C84.1223 47.2127 84.0642 47.4228 83.9547 47.4645L83.1003 47.7892C82.7935 47.9058 81.7414 46.3249 79.9439 43.0465C79.7905 43.1047 78.8675 42.4902 77.1747 41.2029C77.3609 40.5053 77.7388 40.0483 78.3085 39.8318ZM107.401 56.9073L107.763 56.7699C108.157 56.62 108.96 57.6438 110.171 59.8412C110.204 59.9288 110.188 59.9851 110.122 60.0101L110.446 60.5642L110.583 60.9257C110.783 61.4515 110.923 62.0503 111.003 62.722C111.14 62.8201 111.242 62.9568 111.309 63.1321C111.134 63.1987 111.184 63.6936 111.459 64.6169C111.35 64.6585 111.369 65.5664 111.517 67.3406C110.978 69.0245 110.172 70.0705 109.099 70.4785L109 70.516C105.734 71.3561 103.876 71.1846 103.426 70.0015L103.339 69.7715C103.496 69.2606 103.815 68.9135 104.297 68.7303C105.28 68.8083 105.88 68.8056 106.1 68.7224C106.22 68.5765 106.323 68.4869 106.411 68.4535C106.598 68.4829 106.735 68.4809 106.823 68.4476C107.618 67.7693 108.081 67.0417 108.212 66.2648C108.433 64.8017 108.376 63.0682 108.041 61.0645L107.953 60.8344C107.808 60.7144 107.718 60.6105 107.685 60.5229C107.838 60.4646 107.869 60.315 107.777 60.074L107.591 59.8814C107.599 59.7031 107.586 59.5701 107.552 59.4824C106.987 58.7196 106.666 58.2396 106.591 58.0424L106.504 57.8123C106.489 57.4421 106.788 57.1404 107.401 56.9073ZM90.8731 64.5802L91.0045 64.5302C91.3612 64.5451 91.6187 64.7607 91.7769 65.1769L91.9642 65.6699C93.1549 68.8028 93.2737 72.1174 92.3208 75.6137C91.7924 76.4664 91.3748 76.9511 91.0681 77.0676L90.5752 77.255C90.0975 77.1858 89.7755 76.9321 89.609 76.4939C90.3726 74.8748 90.7144 73.3659 90.6341 71.9672C90.6998 71.9423 90.7892 71.6826 90.9023 71.1884L90.6709 70.9754C90.8676 70.1735 90.8005 68.6445 90.4696 66.3883C90.3237 66.2683 90.2174 66.1206 90.1508 65.9454C90.241 65.2592 90.33 64.8994 90.4176 64.8661C90.546 64.7421 90.6978 64.6468 90.8731 64.5802ZM117.207 18.9184L118.21 18.6877L118.39 18.4688C121.218 17.7952 123.462 17.6317 125.124 17.9782C126.436 18.1315 127.997 18.842 129.807 20.1096C129.895 20.0763 130.413 20.6816 131.363 21.9255C131.428 21.9006 131.49 21.9648 131.549 22.1181L131.6 22.5499C131.923 23.0039 132.151 23.4061 132.284 23.7567L132.447 24.1839C132.505 24.3372 132.526 24.4921 132.51 24.6486L132.684 24.8083C132.946 27.0154 132.802 28.6496 132.253 29.7109C131.476 31.3602 130.663 32.5214 129.816 33.1945L129.853 33.2931C131.266 35.8901 132.074 37.2883 132.275 37.4877C132.447 38.074 132.49 38.3838 132.402 38.4171L132.576 38.5768L132.64 39.0415C132.665 39.1072 132.71 39.1276 132.776 39.1026L133.334 41.5608L133.553 41.7408L133.496 41.988L133.715 42.1681C133.7 42.5247 133.889 43.5814 134.28 45.338C134.45 46.5772 134.504 47.773 134.44 48.9254C136.779 49.3403 138.215 50.2488 138.748 51.651C138.858 51.6093 139.175 52.0153 139.7 52.8688L139.676 53.1035C139.792 53.21 139.879 53.3399 139.937 53.4932L139.926 53.7607C140.033 53.8453 140.12 53.9752 140.187 54.1505L140.163 54.3851L140.349 54.5777C140.477 55.5071 140.647 56.4829 140.86 57.5052C140.729 57.5551 140.736 58.0036 140.883 58.8506C140.74 60.0582 140.359 61.1682 139.741 62.1804C139.571 62.9218 138.298 64.0576 135.921 65.5878C135.855 65.6128 135.81 65.5924 135.785 65.5267C134.166 66.5433 132.786 67.2681 131.647 67.7011L128.755 68.8002C125.938 69.3695 124.48 69.5597 124.384 69.3708C123.391 69.5974 121.924 69.2651 119.98 68.3739C119.586 68.5238 118.789 67.8113 117.589 66.2366C117.472 65.9298 117.165 65.3195 116.667 64.4054L116.691 64.1708C116.657 64.0832 116.608 64.0518 116.542 64.0768C116.378 63.5124 116.339 63.2136 116.427 63.1803C116.303 63.0519 116.229 62.9549 116.204 62.8891C116.102 61.699 116.319 60.1249 116.853 58.1666C116.963 58.125 117.143 57.6428 117.394 56.72C118.302 55.3471 118.75 54.6127 118.738 54.5167C117.861 53.9226 116.888 52.7501 115.822 50.9991C115.296 50.6723 114.449 49.1014 113.279 46.2866C113.266 45.9904 113.19 45.6561 113.048 45.2836C113.023 45.2179 112.896 45.0155 112.667 44.6763C112.687 44.2675 112.672 43.9974 112.622 43.8659L112.436 43.6733C112.092 42.1743 111.937 40.942 111.971 39.9762L111.873 40.0137C108.966 39.6891 107.07 38.9554 106.185 37.8127C105.986 37.6874 105.516 36.9762 104.772 35.6793C104.686 35.3861 104.697 35.2187 104.807 35.1771L104.633 35.0174C104.197 33.0771 104.345 31.0273 105.079 28.868C106.391 26.514 107.639 25.1122 108.822 24.6626C108.797 24.5969 108.828 24.5474 108.916 24.5141L109.967 24.1144C110.033 24.0894 110.078 24.1098 110.103 24.1755C111.201 23.633 111.821 23.1214 111.965 22.6407C113.266 21.118 115.014 19.8772 117.207 18.9184ZM106.689 34.6874L106.777 34.9174C106.848 35.0405 106.95 35.0771 107.082 35.0272L107.183 35.5904C107.599 36.6859 109.658 37.3201 113.359 37.493C113.476 37.7997 113.724 38.1566 114.105 38.5637C113.937 39.1789 114.024 40.5624 114.366 42.7143C114.278 42.7476 114.356 43.2822 114.599 44.318C114.737 44.4162 114.822 44.5091 114.855 44.5967L114.799 44.8438L115.13 45.3197C115.197 45.495 115.261 45.7964 115.323 46.2241C116.189 48.5026 117.646 50.6194 119.693 52.5745C120.504 52.9933 121.042 53.5533 121.309 54.2544C121.362 54.4599 120.874 55.2219 119.846 56.5404C118.215 59.2414 117.82 61.6983 118.66 63.9111C119.46 66.0143 121.753 67.0356 125.542 66.975C125.848 66.8585 126.195 66.8144 126.582 66.8429L126.742 66.6694C127.164 66.6593 127.662 66.583 128.234 66.4406L128.427 66.2546C128.934 66.1371 129.2 66.1112 129.225 66.177L129.713 65.8786L130.37 65.6288C130.436 65.6038 130.482 65.6242 130.506 65.6899L130.666 65.5164C130.973 65.3998 131.27 65.3244 131.558 65.2902C135.747 62.9208 137.796 61.6156 137.705 61.3746C138.589 60.3366 138.994 58.9289 138.921 57.1516C138.939 56.3423 138.894 55.7953 138.786 55.5104L138.149 53.8344C137.339 52.5624 136.411 51.7367 135.364 51.3573C133.844 51.1829 132.888 50.5809 132.497 49.5512L132.21 48.7954C132.626 48.6372 132.639 47.6166 132.249 45.7338L132.076 45.5741C132.173 45.2362 132.046 44.1437 131.695 42.2963C131.67 42.2306 131.614 42.2144 131.526 42.2477C131.288 41.1597 130.911 39.9365 130.395 38.5782C130.362 38.4905 130.378 38.4342 130.444 38.4093C130.293 38.3413 129.709 37.2343 128.693 35.0881L127.419 33.6166L127.344 33.4194C127.399 32.972 128.006 32.1272 129.164 30.8849C130.33 29.6645 130.862 28.0958 130.76 26.1788C130.771 25.5478 130.731 25.1118 130.639 24.8708L130.602 24.7722C130.56 24.6627 130.301 24.3099 129.823 23.714C129.798 23.6483 129.83 23.5988 129.917 23.5655C129.376 22.1414 127.613 21.0314 124.627 20.2353C122.462 20.0803 120.389 20.2664 118.408 20.7936C115.456 22.3921 113.717 23.6548 113.191 24.5816C110.03 26.1592 108.125 27.4473 107.476 28.4459C106.319 30.9418 106.056 33.0223 106.689 34.6874ZM121.466 21.8129C122.518 21.4132 123.462 21.4557 124.298 21.9403C124.582 21.832 125.39 22.3401 126.72 23.4644C127.005 24.0831 127.191 24.3758 127.279 24.3425C127.978 26.1828 127.961 27.7191 127.225 28.9513C126.713 30.3745 126.172 31.1943 125.603 31.4108L125.504 31.4483C124.819 31.5583 124.447 31.5366 124.389 31.3833L124.301 31.1532C125.122 29.4872 125.408 28.3256 125.158 27.6683C125.383 27.5329 125.345 26.9077 125.047 25.7925L125.146 25.755L124.96 25.5625C124.935 25.4967 124.955 25.4514 125.021 25.4264C124.219 23.9761 123.56 23.2987 123.045 23.3942C122.004 23.1629 121.427 22.9309 121.314 22.6982L121.466 21.8129ZM125.109 34.2687L125.208 34.2312C126.628 35.3962 127.726 36.9975 128.5 39.035C128.626 39.5639 128.701 39.8612 128.726 39.927L129.025 40.4153L129.227 41.5418C129.261 41.6295 129.31 41.6608 129.376 41.6358C129.792 42.7313 130.023 44.6244 130.067 47.3153C130.002 47.3402 129.948 47.9248 129.906 49.0689C129.775 49.1188 129.581 49.2678 129.324 49.5158C128.998 49.5145 128.818 49.4701 128.784 49.3824C128.66 49.0538 128.643 48.4833 128.736 47.6709C128.604 47.7209 128.514 47.6801 128.464 47.5487L128.339 47.22C128.094 46.5106 128.027 46.1351 128.136 46.0935L127.963 45.9338C127.802 44.9168 127.255 42.8179 126.322 39.6372C126.126 39.3857 125.987 39.1504 125.903 38.9313C125.812 38.6903 125.789 38.4984 125.835 38.3555C125.597 37.9945 125.433 37.6935 125.341 37.4525L124.817 36.0722C124.503 35.8404 124.271 35.5274 124.121 35.133C124.385 34.7066 124.715 34.4185 125.109 34.2687ZM132.381 52.1152C133.16 52.12 134.041 52.7251 135.026 53.9305L134.97 54.1776C135.232 54.0777 135.648 54.6094 136.215 55.7728L136.159 56.0199L136.378 56.2C136.63 57.9847 136.443 59.3091 135.819 60.1732C135.977 60.5895 134.919 61.6311 132.644 63.298L131.888 63.5853C128.929 64.3088 127.395 64.5282 127.286 64.2434L127.249 64.1448C127.182 63.9695 127.531 63.599 128.293 63.0333L130.298 62.2714C131.737 61.3735 132.612 60.4768 132.924 59.5811C133.528 58.5991 133.759 57.6216 133.614 56.6484C133.6 55.9517 133.548 55.4828 133.456 55.2418L133.418 55.1432C133.169 54.486 132.675 53.9464 131.938 53.5244L131.627 53.0032C131.834 52.6238 132.085 52.3278 132.381 52.1152ZM147.417 7.70071L147.467 7.83216L147.679 7.60079L149.224 7.0138C151.634 6.09791 154.828 6.28818 158.806 7.58461C161.564 9.16896 163.33 10.9799 164.105 13.0174L164.094 13.2849C164.414 13.6648 164.703 14.1943 164.961 14.8735C165.76 16.9767 166.176 19.8525 166.208 23.5008C166.212 24.8285 165.688 26.7825 164.638 29.363C166.376 29.7805 167.708 30.3151 168.632 30.9666C172.069 32.8195 174.725 35.1574 176.6 37.98C177.194 38.8827 177.533 39.4435 177.616 39.6626L177.517 39.7001C177.787 39.9485 177.951 40.1494 178.01 40.3028C178.043 40.3904 178.016 40.4509 177.928 40.4842L178.372 41.2558L178.509 41.6173C179.067 43.0852 179.031 44.9041 178.402 47.074C177.51 48.8171 176.385 50.147 175.029 51.0637C174.996 51.1763 174.706 51.3367 174.159 51.5449C172.274 52.2609 169.614 52.0559 166.177 50.93L162.144 48.9274C160.997 48.0848 159.833 47.0352 158.653 45.7786L158.373 45.7345C158.854 47.6581 158.773 50.1836 158.131 53.3109C157.478 55.0886 156.14 56.8131 154.117 58.4844C150.721 59.775 147.682 58.9366 145 55.9694C144.607 55.7928 143.612 54.5916 142.013 52.3657C141.733 52.2215 140.766 50.7335 139.113 47.9016L139.125 47.6341C138.49 46.8222 137.298 44.3791 135.549 40.305C135.462 40.3383 135.401 40.3112 135.368 40.2235C135.281 39.7301 135.27 39.471 135.336 39.446C135.302 39.3583 135.253 39.327 135.187 39.352L135.111 38.8544C135.078 38.7668 134.999 38.6588 134.875 38.5304L134.111 35.135C133.974 35.0368 133.871 34.9001 133.805 34.7249L133.849 34.4449L133.617 34.2319C133.593 34.1662 133.595 34.04 133.624 33.8533L133.305 33.4103C132.557 30.3852 132.123 27.792 132.004 25.6309C131.793 23.2289 131.984 21.1254 132.576 19.3205C132.376 18.5944 133.136 16.9013 134.858 14.241C135.138 13.6582 136.151 12.8596 137.897 11.8452L139.901 11.0833C141.443 11.0491 142.322 11.2166 142.537 11.586L142.767 11.4986C144.07 9.64942 145.62 8.38346 147.417 7.70071ZM142.527 14.0343C142.44 14.0676 141.731 13.8856 140.402 13.4882L139.892 13.5316L139.679 13.763C139.138 13.7928 138.803 13.8327 138.671 13.8827C138.738 14.0579 138.069 14.5752 136.666 15.4345C134.979 18.0562 134.172 20.5822 134.243 23.0123C134.024 23.0956 134.092 24.5615 134.447 27.4101C134.681 28.0235 134.727 28.5075 134.585 28.862L134.898 29.6836C135.106 30.2313 135.133 30.5343 134.98 30.5926C135.013 30.6802 135.063 30.7115 135.128 30.6865C135.201 31.5366 135.786 33.671 136.885 37.0896L136.786 37.1271L137.241 37.6312C137.545 38.6942 137.664 39.2382 137.598 39.2632L137.784 39.4557L137.872 39.6858C138.529 41.4166 139.131 42.7677 139.675 43.7391C139.668 43.9174 139.681 44.0504 139.714 44.1381C139.806 44.3791 140.151 44.9248 140.75 45.7753L140.706 46.0553C142.553 49.2649 144.499 52.0104 146.544 54.292C147.655 55.4995 148.985 56.3605 150.534 56.8749C150.965 56.8867 151.571 56.8319 152.352 56.7105L152.944 56.4857C154.039 56.0694 155.074 54.6356 156.048 52.1844C156.672 48.813 156.543 45.9662 155.661 43.6439C155.503 43.2276 155.94 42.6976 156.975 42.0539C157.391 41.8957 158.478 42.611 160.235 44.1997C160.424 44.3031 161.331 45.1372 162.953 46.7019C165.794 48.3051 168.018 49.1772 169.627 49.3182C170.327 49.5785 171.571 49.5195 173.358 49.1413L173.538 48.9224L173.851 48.9539C175.78 47.1678 176.619 45.9461 176.369 45.2889L176.604 43.4321L176.554 43.3006C176.354 42.7748 176.219 42.2871 176.148 41.8376C174.608 39.0381 173.491 37.4191 172.798 36.9805C171.473 35.804 170.071 34.7198 168.591 33.7278C167.062 32.8046 165.763 32.2576 164.695 32.0867L162.098 30.8926C161.806 30.1258 162.007 29.2347 162.699 28.2194C163.736 26.3961 164.122 24.0806 163.857 21.2727C163.92 21.1737 163.903 20.4029 163.806 18.9604C163.781 18.8947 163.725 18.8785 163.637 18.9118L162.781 15.9653L162.288 15.3626C162.255 15.275 162.282 15.2145 162.37 15.1812C161.522 13.347 160.179 11.7262 158.34 10.3189C155.39 9.28399 153.651 8.86647 153.126 9.0663C152.025 9.00807 150.798 9.11087 149.444 9.3747L149.219 9.5732C149.041 9.56576 148.918 9.57453 148.853 9.59951C147.473 10.1241 145.806 11.3466 143.853 13.2673C143.21 13.6871 142.768 13.9428 142.527 14.0343ZM149.402 11.8355C150.409 11.4525 151.786 11.3806 153.532 11.6198C156.469 12.6849 158.387 14.4005 159.287 16.7666L159.188 16.8041C159.516 17.2059 159.818 17.7683 160.092 18.4913C160.039 18.8125 160.085 19.2964 160.23 19.9432C160.376 20.0633 160.462 20.1561 160.487 20.2219C160.397 20.3814 160.398 21.4718 160.489 23.4931L159.757 27.3066C158.695 29.7911 157.825 31.1624 157.146 31.4206L156.784 31.5579L156.384 31.2964L156.334 31.1649C157.031 30.0975 157.518 28.8719 157.795 27.4881C158.309 26.4654 158.328 24.6027 157.853 21.9C157.819 21.8123 157.626 21.4346 157.271 20.7669C157.143 20.1639 157.097 19.7801 157.135 19.6153L156.274 18.4382L156.11 17.7106L156.01 17.4477L153.517 14.7471C152.067 13.7687 151.178 13.3419 150.849 13.4668C149.558 13.6316 148.802 13.5554 148.581 13.2382C148.568 12.7417 148.841 12.2742 149.402 11.8355ZM148.325 19.6912C150.407 18.9003 151.709 18.9946 152.232 19.9744C152.454 19.9652 152.876 20.4818 153.497 21.5242C154.238 23.4741 154.035 25.1812 152.886 26.6456L152.301 27.2819C151.753 27.4901 151.192 26.8383 150.617 25.3266L150.716 25.2891L148.365 21.1806L148.09 20.4576L147.871 20.2775C148.043 19.9366 148.194 19.7412 148.325 19.6912ZM162.136 33.172L162.859 32.8972C165.495 33.5001 167.49 34.4596 168.843 35.7758C170.159 36.4037 171.564 37.7252 173.057 39.7403C173.123 39.7154 173.185 39.7795 173.243 39.9329L173.063 40.1518L173.655 41.0174C174.047 43.3007 173.98 44.5423 173.454 44.7421C173.712 45.4213 173.272 46.1776 172.135 47.0111C171.699 47.0514 171.397 46.8525 171.231 46.4143C172.012 45.566 172.206 44.627 171.815 43.5972C171.903 43.5639 171.921 43.3814 171.87 43.0497L171.191 41.9541C171.198 41.7758 171.185 41.6428 171.152 41.5551C170.918 41.4684 169.904 40.4496 168.11 38.4989C166.835 37.4539 166.143 36.9522 166.033 36.9939C165.821 36.6985 165.397 36.4083 164.762 36.123C164.696 35.9478 164.033 35.5228 162.773 34.848L162.039 34.2999L161.989 34.1684C161.83 33.7522 161.88 33.42 162.136 33.172ZM152.937 41.8207C153.068 41.7707 153.284 41.8768 153.584 42.1388C153.651 42.3141 153.676 42.4799 153.661 42.6363C153.785 42.7647 153.863 42.8727 153.897 42.9604L153.798 42.9978C153.831 43.0855 153.881 43.1168 153.947 43.0918C154.307 48.9222 153.797 52.0997 152.417 52.6243L152.187 52.7117C152.077 52.7533 151.911 52.6786 151.688 52.4876L151.638 52.3561C152.228 51.2041 152.428 49.6863 152.239 47.8025C152.394 47.4178 152.371 46.0724 152.172 43.7662L151.973 43.5408C152.068 42.6022 152.236 42.0871 152.477 41.9955L152.937 41.8207Z" fill="#00688F"/>
</svg>
