<svg width="475" height="582" viewBox="0 0 475 582" fill="none" xmlns="http://www.w3.org/2000/svg">
<g clip-path="url(#clip0_6_2)">
<path opacity="0.45" d="M226.933 28.7237L200.218 190.72L49.0304 245.748L75.689 83.7718L226.98 28.7066" fill="#00688F"/>
<path opacity="0.6" d="M200.218 190.72L351.508 135.655L226.933 28.7237L75.689 83.7719L200.218 190.72Z" fill="#00688F"/>
<path opacity="0.8" d="M173.548 352.637L200.228 190.749L75.689 83.7718L49.0304 245.748L173.548 352.637Z" fill="#00688F"/>
<path opacity="0.45" d="M247.721 554.087L274.436 392.09L425.727 337.025L398.965 499.039L247.721 554.087Z" fill="#00688F"/>
<path opacity="0.6" d="M274.436 392.09L123.183 447.142L247.721 554.087L399.012 499.022L274.436 392.09Z" fill="#00688F"/>
<path opacity="0.8" d="M301.106 230.174L274.426 392.062L398.965 499.039L425.68 337.042L301.106 230.174Z" fill="#00688F"/>
</g>
<defs>
<clipPath id="clip0_6_2">
<rect width="322.71" height="500.79" fill="white" transform="translate(0.0907593 111.287) rotate(-20)"/>
</clipPath>
</defs>
</svg>
